<?xml version="1.0" encoding="utf-8"?>
<!-- Generator: Adobe Illustrator 26.1.0, SVG Export Plug-In . SVG Version: 6.00 Build 0)  -->
<svg version="1.1" id="Layer_1" xmlns="http://www.w3.org/2000/svg" xmlns:xlink="http://www.w3.org/1999/xlink" x="0px" y="0px"
	 viewBox="0 0 91.71 144.67" style="enable-background:new 0 0 91.71 144.67;" xml:space="preserve">
<style type="text/css">
	.st0{fill:#FFFFFF;}
	.st1{fill:#F2E581;}
	.st2{fill:#6D6D6D;}
	.st3{fill:#4DEF96;}
	.st4{fill:#EA5050;}
	.st5{fill:#1E98FF;}
</style>
<circle class="st0" cx="45.82" cy="48.5" r="28.17"/>
<path class="st3" d="M37.15,135.17c-0.36,0-0.73-0.09-1.07-0.28c-0.85-0.48-1.27-1.47-1.03-2.41L46.4,87.5
	c-0.2,0-0.39,0.01-0.59,0.01c-21.5,0-39-17.5-39-39s17.5-39,39-39s39,17.5,39,39c2.2,37.25-44.16,84.06-46.13,86.03
	C38.27,134.95,37.71,135.17,37.15,135.17z M45.82,26.84c-11.95,0-21.67,9.72-21.67,21.67s9.72,21.67,21.67,21.67
	s21.67-9.72,21.67-21.67S57.76,26.84,45.82,26.84z"/>
<path class="st0" d="M45.82,11.67c20.34,0,36.83,16.49,36.83,36.83c2.17,36.83-45.5,84.5-45.5,84.5l12.03-47.67l0.15-0.18
	c-1.16,0.11-2.33,0.18-3.52,0.18c-20.34,0-36.83-16.49-36.83-36.83S25.48,11.67,45.82,11.67 M45.82,72.34
	c13.16,0,23.83-10.67,23.83-23.83S58.98,24.67,45.82,24.67S21.98,35.34,21.98,48.5S32.65,72.34,45.82,72.34 M45.82,7.34
	C23.12,7.34,4.65,25.8,4.65,48.5c0,21.97,17.3,39.97,38.99,41.11l-10.69,42.33c-0.48,1.89,0.37,3.87,2.06,4.83
	c0.67,0.38,1.41,0.57,2.14,0.57c1.12,0,2.23-0.43,3.07-1.27c2-2,48.91-49.38,46.77-87.69C86.91,25.74,68.47,7.34,45.82,7.34
	L45.82,7.34z M45.82,68c-10.75,0-19.5-8.75-19.5-19.5S35.07,29,45.82,29s19.5,8.75,19.5,19.5S56.57,68,45.82,68L45.82,68z"/>
<polygon class="st2" points="45.82,33.34 32.03,45.9 34.98,45.9 34.98,63.67 41.48,63.67 41.48,51.82 50.15,51.82 50.15,63.67 
	56.65,63.67 56.65,45.9 59.61,45.9 "/>
</svg>
